<svg width="115" height="115" viewBox="0 0 115 115" fill="none" xmlns="http://www.w3.org/2000/svg">
<path fill-rule="evenodd" clip-rule="evenodd" d="M114.122 57.6166L114.12 66.6382L114.117 69.5205L114.111 71.6161L114.103 73.3226L114.093 74.7879L114.081 76.0857L114.066 77.2586L114.049 78.3342L114.029 79.3312L114.008 80.263L113.984 81.1397L113.957 81.9691L113.929 82.7572L113.898 83.509L113.865 84.2283L113.83 84.9186L113.792 85.5826L113.752 86.2227L113.71 86.8409L113.665 87.4389L113.618 88.0183L113.569 88.5804L113.517 89.1264L113.463 89.6573L113.407 90.1741L113.348 90.6776L113.287 91.1686L113.224 91.6477L113.159 92.1156L113.091 92.5727L113.02 93.0198L112.948 93.4571L112.872 93.8851L112.795 94.3043L112.715 94.7149L112.633 95.1174L112.548 95.5121L112.461 95.8992L112.372 96.2789L112.28 96.6517L112.185 97.0176L112.088 97.377L111.989 97.73L111.887 98.0768L111.783 98.4176L111.677 98.7525L111.567 99.0818L111.456 99.4056L111.341 99.724L111.225 100.037L111.105 100.345L110.983 100.648L110.859 100.947L110.732 101.24L110.602 101.529L110.47 101.813L110.335 102.093L110.197 102.368L110.057 102.639L109.914 102.906L109.769 103.169L109.62 103.428L109.469 103.682L109.315 103.933L109.159 104.18L108.999 104.423L108.837 104.662L108.672 104.898L108.504 105.13L108.333 105.359L108.16 105.584L107.983 105.805L107.803 106.023L107.621 106.238L107.435 106.449L107.246 106.657L107.054 106.862L106.859 107.064L106.661 107.262L106.46 107.457L106.256 107.649L106.048 107.838L105.837 108.024L105.622 108.207L105.404 108.387L105.183 108.564L104.959 108.738L104.73 108.909L104.499 109.077L104.263 109.242L104.024 109.405L103.781 109.564L103.535 109.721L103.284 109.875L103.03 110.027L102.771 110.175L102.509 110.321L102.242 110.464L101.972 110.604L101.697 110.742L101.417 110.877L101.133 111.01L100.845 111.14L100.552 111.267L100.254 111.392L99.9514 111.514L99.6438 111.633L99.331 111.75L99.013 111.865L98.6896 111.977L98.3608 112.086L98.0263 112.193L97.6859 112.297L97.3396 112.399L96.9871 112.499L96.6283 112.596L96.2629 112.69L95.8907 112.783L95.5115 112.872L95.125 112.96L94.731 113.044L94.3291 113.127L93.9191 113.207L93.5006 113.285L93.0733 113.36L92.6367 113.433L92.1905 113.503L91.7342 113.571L91.2672 113.637L90.789 113.701L90.299 113.762L89.7965 113.821L89.2808 113.877L88.751 113.931L88.2063 113.983L87.6455 114.032L87.0675 114.079L86.471 114.124L85.8545 114.167L85.2162 114.207L84.5542 114.245L83.8661 114.28L83.1492 114.314L82.4002 114.345L81.6151 114.373L80.7892 114.4L79.9165 114.424L78.9894 114.446L77.9981 114.465L76.9294 114.483L75.765 114.498L74.4785 114.51L73.0287 114.521L71.3453 114.529L69.2896 114.535L66.5008 114.538L60.4773 114.54L48.4713 114.539L45.4864 114.536L43.3488 114.53L41.6181 114.522L40.1369 114.512L38.8277 114.5L37.6459 114.485L36.5634 114.468L35.5607 114.449L34.6241 114.428L33.7433 114.404L32.9103 114.378L32.1191 114.349L31.3647 114.319L30.6429 114.286L29.9504 114.251L29.2844 114.213L28.6425 114.173L28.0226 114.131L27.423 114.087L26.8422 114.04L26.2788 113.991L25.7315 113.939L25.1994 113.886L24.6816 113.83L24.177 113.771L23.6851 113.711L23.205 113.648L22.7363 113.582L22.2783 113.514L21.8305 113.444L21.3924 113.372L20.9637 113.297L20.5438 113.219L20.1325 113.14L19.7293 113.058L19.3341 112.973L18.9464 112.886L18.5661 112.797L18.1928 112.705L17.8263 112.611L17.4664 112.514L17.1129 112.415L16.7656 112.314L16.4244 112.21L16.0889 112.103L15.7592 111.994L15.435 111.883L15.1161 111.769L14.8025 111.652L14.4941 111.533L14.1906 111.411L13.892 111.287L13.5982 111.16L13.309 111.031L13.0244 110.899L12.7443 110.764L12.4686 110.627L12.1972 110.487L11.93 110.344L11.6669 110.198L11.4079 110.05L11.1529 109.9L10.9018 109.746L10.6546 109.59L10.4112 109.43L10.1715 109.268L9.9355 109.104L9.70314 108.936L9.47436 108.765L9.24911 108.592L9.02734 108.415L8.809 108.236L8.59406 108.053L8.38246 107.868L8.17417 107.679L7.96915 107.488L7.76736 107.293L7.56876 107.095L7.37332 106.894L7.18101 106.69L6.99178 106.483L6.80562 106.272L6.62249 106.058L6.44236 105.84L6.2652 105.619L6.09099 105.395L5.9197 105.167L5.75131 104.935L5.58578 104.7L5.42311 104.461L5.26325 104.219L5.1062 103.973L4.95193 103.722L4.80043 103.468L4.65166 103.21L4.50561 102.948L4.36227 102.682L4.22162 102.412L4.08363 102.137L3.9483 101.858L3.8156 101.574L3.68552 101.286L3.55805 100.994L3.43317 100.696L3.31086 100.394L3.19112 100.087L3.07393 99.7743L2.95928 99.4567L2.84715 99.1338L2.73753 98.8054L2.63042 98.4713L2.52579 98.1314L2.42365 97.7856L2.32398 97.4336L2.22677 97.0753L2.132 96.7104L2.03968 96.3388L1.94979 95.9601L1.86233 95.5742L1.77728 95.1808L1.69463 94.7796L1.61439 94.3702L1.53654 93.9525L1.46107 93.5258L1.38798 93.09L1.31726 92.6446L1.24891 92.1891L1.18291 91.7229L1.11927 91.2457L1.05798 90.7566L0.999028 90.2552L0.942414 89.7405L0.888132 89.2119L0.836178 88.6684L0.786546 88.1089L0.739234 87.5324L0.694237 86.9374L0.651551 86.3226L0.611173 85.6861L0.573099 85.0261L0.537326 84.3401L0.503852 83.6256L0.472673 82.8793L0.443786 82.0973L0.417191 81.2748L0.392883 80.4061L0.370862 79.4836L0.351126 78.4978L0.333673 77.4359L0.318501 76.28L0.30561 75.0045L0.294998 73.5697L0.286664 71.9086L0.280609 69.8909L0.276831 67.1876L0.27533 61.9431L0.276105 49.1997L0.279158 46.1013L0.284488 43.9192L0.292096 42.1636L0.301982 40.666L0.314147 39.345L0.328592 38.1543L0.345319 37.0646L0.364328 36.0562L0.385621 35.1147L0.4092 34.2297L0.435066 33.3933L0.463223 32.5989L0.493671 31.8417L0.526414 31.1174L0.561455 30.4227L0.598796 29.7547L0.638439 29.1109L0.68039 28.4894L0.72465 27.8883L0.771225 27.306L0.820117 26.7412L0.87133 26.1927L0.92487 25.6595L0.980741 25.1405L1.03895 24.6349L1.09949 24.142L1.16239 23.661L1.22763 23.1914L1.29523 22.7326L1.3652 22.284L1.43753 21.8451L1.51224 21.4156L1.58933 20.9951L1.66881 20.5831L1.75069 20.1793L1.83497 19.7834L1.92167 19.3952L2.01079 19.0143L2.10233 18.6404L2.19632 18.2734L2.29275 17.913L2.39164 17.559L2.49299 17.2112L2.59682 16.8695L2.70314 16.5336L2.81196 16.2034L2.92329 15.8788L3.03713 15.5595L3.15352 15.2455L3.27244 14.9366L3.39393 14.6328L3.51799 14.3338L3.64464 14.0396L3.77388 13.7501L3.90574 13.4651L4.04024 13.1846L4.17738 12.9086L4.31718 12.6368L4.45966 12.3693L4.60484 12.1059L4.75274 11.8465L4.90337 11.5912L5.05676 11.3398L5.21292 11.0923L5.37188 10.8486L5.53366 10.6086L5.69827 10.3723L5.86575 10.1397L6.03612 9.91062L6.20939 9.6851L6.38561 9.46305L6.56479 9.24444L6.74696 9.02923L6.93216 8.81737L7.1204 8.60882L7.31173 8.40354L7.50617 8.20149L7.70376 8.00264L7.90453 7.80695L8.10852 7.61439L8.31576 7.42492L8.5263 7.23851L8.74017 7.05514L8.95742 6.87477L9.17809 6.69738L9.40223 6.52294L9.62988 6.35141L9.86109 6.18279L10.0959 6.01704L10.3344 5.85413L10.5766 5.69406L10.8226 5.53678L11.0725 5.38229L11.3262 5.23057L11.5839 5.08158L11.8457 4.93532L12.1116 4.79177L12.3817 4.6509L12.656 4.5127L12.9347 4.37716L13.2179 4.24425L13.5056 4.11396L13.7979 3.98628L14.095 3.8612L14.3969 3.73869L14.7037 3.61874L15.0157 3.50135L15.3328 3.38649L15.6553 3.27416L15.9833 3.16435L16.3169 3.05703L16.6563 2.95221L17.0016 2.84987L17.3531 2.75L17.7109 2.65259L18.0753 2.55764L18.4464 2.46512L18.8245 2.37504L19.2098 2.28738L19.6026 2.20214L20.0032 2.1193L20.4119 2.03887L20.829 1.96082L21.2549 1.88517L21.6899 1.81189L22.1346 1.74098L22.5893 1.67244L23.0545 1.60626L23.5309 1.54243L24.019 1.48095L24.5194 1.42181L25.033 1.36501L25.5605 1.31055L26.1028 1.25841L26.6609 1.20859L27.2361 1.16109L27.8295 1.11591L28.4427 1.07304L29.0774 1.03248L29.7355 0.994224L30.4192 0.958268L31.1314 0.92461L31.875 0.893248L32.6541 0.864179L33.4731 0.837401L34.3379 0.812912L35.2557 0.790709L36.2361 0.770791L37.2914 0.753156L38.439 0.737802L39.7038 0.72473L41.1239 0.713936L42.7634 0.705421L44.745 0.699184L47.3697 0.695225L52.1101 0.693542L65.2868 0.694137L68.5118 0.697008L70.7409 0.702157L72.5225 0.709584L74.037 0.719288L75.3701 0.731272L76.5699 0.745535L77.6668 0.76208L78.6812 0.780907L79.6275 0.802018L80.5167 0.825415L81.3568 0.851099L82.1543 0.879073L82.9143 0.909339L83.6411 0.9419L84.338 0.976757L85.0081 1.01391L85.6537 1.05337L86.2769 1.09514L86.8796 1.13922L87.4633 1.18561L88.0294 1.23432L88.5792 1.28534L89.1136 1.3387L89.6337 1.39438L90.1403 1.4524L90.6342 1.51276L91.1161 1.57547L91.5866 1.64053L92.0463 1.70794L92.4957 1.77771L92.9353 1.84986L93.3655 1.92438L93.7867 2.00128L94.1994 2.08057L94.6038 2.16226L95.0003 2.24635L95.3892 2.33285L95.7707 2.42178L96.1451 2.51313L96.5126 2.60692L96.8735 2.70316L97.228 2.80185L97.5763 2.90301L97.9185 3.00664L98.2549 3.11276L98.5855 3.22138L98.9106 3.33251L99.2303 3.44615L99.5447 3.56233L99.854 3.68106L100.158 3.80234L100.458 3.92619L100.752 4.05263L101.042 4.18167L101.327 4.31332L101.608 4.44761L101.885 4.58454L102.157 4.72413L102.425 4.86639L102.688 5.01136L102.948 5.15904L103.204 5.30946L103.455 5.46262L103.703 5.61856L103.947 5.7773L104.187 5.93885L104.424 6.10324L104.657 6.27049L104.886 6.44062L105.112 6.61366L105.334 6.78965L105.553 6.96859L105.769 7.15052L105.981 7.33547L106.19 7.52347L106.395 7.71455L106.598 7.90875L106.797 8.10608L106.993 8.3066L107.185 8.51033L107.375 8.71731L107.562 8.92759L107.745 9.1412L107.926 9.35818L108.104 9.57857L108.278 9.80243L108.45 10.0298L108.619 10.2607L108.785 10.4953L108.948 10.7335L109.108 10.9754L109.266 11.2211L109.421 11.4706L109.572 11.7241L109.722 11.9815L109.868 12.2429L110.012 12.5085L110.153 12.7782L110.291 13.0522L110.427 13.3306L110.56 13.6133L110.691 13.9007L110.819 14.1926L110.944 14.4893L111.067 14.7908L111.187 15.0973L111.304 15.4088L111.419 15.7256L111.532 16.0476L111.642 16.3751L111.75 16.7083L111.855 17.0472L111.957 17.3921L112.057 17.7431L112.155 18.1004L112.25 18.4642L112.343 18.8348L112.433 19.2123L112.521 19.597L112.606 19.9892L112.689 20.3892L112.77 20.7972L112.848 21.2136L112.924 21.6388L112.997 22.0731L113.068 22.517L113.137 22.9709L113.204 23.4353L113.268 23.9107L113.329 24.3979L113.389 24.8973L113.446 25.4098L113.5 25.9361L113.553 26.4772L113.603 27.034L113.65 27.6078L113.696 28.1997L113.739 28.8113L113.779 29.4442L113.818 30.1003L113.854 30.782L113.888 31.4917L113.919 32.2328L113.949 33.0088L113.976 33.8244L114 34.6854L114.023 35.5987L114.043 36.5736L114.061 37.6224L114.076 38.7619L114.089 40.0162L114.1 41.422L114.109 43.0407L114.115 44.9879L114.12 47.5399L114.121 51.9077L114.122 57.6166Z" fill="url(#paint0_linear)"/>
<path d="M75.8783 72.1196L83.2026 64.7954L89.0829 70.6757C93.128 74.7208 93.128 81.2791 89.0829 85.3242L75.8783 72.1196Z" fill="#A08CCB"/>
<path d="M25.9896 28.9786L25.9896 79.3709C25.9896 85.0915 30.6271 89.7289 36.3477 89.7289H63.5812V72.948L54.0324 66.3932L49.9863 54.4977L54.8417 42.683L63.5813 39.3366C63.5813 33.616 58.9438 28.9786 53.2232 28.9786L25.9896 28.9786Z" fill="#BDAFDB"/>
<path fill-rule="evenodd" clip-rule="evenodd" d="M80.9843 69.9014C72.8942 77.9916 59.7774 77.9916 51.6873 69.9014C43.5971 61.8113 43.5971 48.6946 51.6873 40.6044C59.7774 32.5143 72.8942 32.5143 80.9843 40.6044C89.0745 48.6946 89.0745 61.8113 80.9843 69.9014ZM74.5729 63.49C70.0222 68.0407 62.644 68.0407 58.0933 63.49C53.5426 58.9393 53.5426 51.5612 58.0933 47.0105C62.644 42.4597 70.0222 42.4597 74.5729 47.0105C79.1236 51.5612 79.1236 58.9393 74.5729 63.49Z" fill="#60439D"/>
<defs>
<linearGradient id="paint0_linear" x1="57.1984" y1="0.693542" x2="57.1984" y2="114.54" gradientUnits="userSpaceOnUse">
<stop stop-color="white"/>
<stop offset="1" stop-color="#D8D8D8"/>
</linearGradient>
</defs>
</svg>
